<svg xmlns="http://www.w3.org/2000/svg" width="360" height="185" viewBox="0 0 360 185">
    <path style="fill:#e4f3ff" d="M0 0h360v185H0z"/>
    <path data-name="패스 248" d="M60.5 81.4c-.266.1-.538.186-.815.272a50.975 50.975 0 0 0-11.634 5l-.025.015-.073.04h-.006l-.085.046-.018.01-.011.006-.062.032-.028.014-.132.068h-.006l-.029.014-.017.007-.019.011-.025.012-.011.006-.034.017-.072.037-.018.01-.019.008-.028.015-.01.006-.039.018-.037.019-.01.006-.029.015-.021.01-.018.01-.03.017h-.008l-.039.022-.037.019-.014.007-.026.015-.023.012-.015.008-.034.021h-.006l-.04.022-.036.021-.015.008-.025.014-.025.017-.015.007-.036.022-.04.025h-.006l-.034.019-.017.011-.023.014-.028.018-.012.008-.037.023-.04.026-.008.006-.03.021-.019.012-.021.014-.029.021-.01.007-.039.028-.039.029-.076.057-.032.023-.007.006-.039.029c-.062.05-.124.1-.183.153l-.03.029-.06.065-.022.021-.012.012-.032.029-.034.033-.034.036a1.4 1.4 0 0 0-.386.306c-.518.585.029 5.063.291 10.3.2 4 .365 7.189.423 10.163h.046a88.66 88.66 0 0 1-.445 11.077.95.95 0 0 0-.671.128c-.5.309-3.108 2.376-4.626 3.531-.917.7-1.759 1.311-2.02 1.522-.321.114-.659.221-1.011.32-1.348.378-2.352.334-2.986.825a1.794 1.794 0 0 0-.1 2.489l34.612 34.529h90.674v-47.68l-89.3-89.264-.124-.168C67.931 23.36 63.2 23 61.054 25.467a6.79 6.79 0 0 0-4 1.253c-2.742 1.511-3.133 4.742-2.352 7.6-.044 3.157.86 6.647 3.235 8.554a.512.512 0 0 0 .124.074l1.2 1.251a.53.53 0 0 0 .114.07c.256 1.5.3 2.741-.415 3.308a9.1 9.1 0 0 1-3 1.153c-1.634.381-2.272 1.062-3.219 3.59-1.757 4.693-2.764 9.632-4.7 14.283a3.441 3.441 0 0 0-.323 1.485 2.474 2.474 0 0 0 .845 1.377z" transform="translate(200.454 21.675)" style="fill-rule:evenodd;fill:#cbe2f5"/>
    <g data-name="그룹 306">
        <path data-name="패스 222" d="M53.043 41.764c-2.329.376-3.013.815-4.117 3.761-1.757 4.693-2.765 9.632-4.7 14.283a3.441 3.441 0 0 0-.323 1.485 2.654 2.654 0 0 0 .845 1.377c2.851 3.117 7.674 5.927 11.382 8.71.263.2 1.331-.429 1.5-.557.659-.489-.132-2.221-.131-2.5l-8.3-7.761c-.553-.67-.426-.491.054-1.281l5.066-10.374z" transform="translate(202.812 26.971)" style="fill:#ffdba7;fill-rule:evenodd"/>
        <path data-name="패스 223" d="M63.589 81.795c3.334-.285 6.413-2.074 10.243-2.127 5.434-.077 15.785 3.447 23.185 3.834l.048 6.151c-10.01-1.415-14.913-1.2-25.352-.845-5.241.176-9.727.652-10.305.125-.789-.72-.62-2.274-.507-5z" transform="translate(209.218 41.328)" style="fill:#f0c17d;fill-rule:evenodd"/>
        <path data-name="패스 224" d="M53.676 63.85c7.123-3.975 7.651-2.787 10.544-.92 3.6 2.326 4.489 7.626 4.757 13.2a137.11 137.11 0 0 1-.518 16.612l-4.005 3.266c-1.151-.582-1.695-2.133-2.068-2.8-3.688-6.542-5.427-11.6-7.541-19.27z" transform="translate(206.518 34.333)" style="fill:#f0c17d;fill-rule:evenodd"/>
        <path data-name="패스 225" d="M53.731 63.655c7.124-3.975 7.575-2.559 10.468-.692 3.6 2.326 4.489 7.626 4.757 13.2a137.11 137.11 0 0 1-.518 16.612l-4.005 3.266c-1.151-.582-1.695-2.133-2.068-2.8-3.688-6.542-5.427-11.6-7.541-19.27z" transform="translate(206.539 34.299)" style="fill:#072c5e;fill-rule:evenodd"/>
        <path data-name="패스 226" d="M73.717 59.682c4.087 7.059 2.927 11.68 1.106 14.6-2.267 3.637-7.629 4.385-13.2 4.739a138.818 138.818 0 0 1-16.162.13l-3.33-3.951c.564-1.16 2.107-1.728 2.763-2.114 6.482-3.79 11.084-4.727 18.72-6.963l3.515-5.783z" transform="translate(202.144 33.758)" style="fill:#ffdba7;fill-rule:evenodd"/>
        <path data-name="패스 227" d="M49.416 72.93c.339 3.33 2.177 6.378 2.292 10.207.164 5.432-3.195 15.837-3.462 23.242l-6.149.148c1.253-10.031.96-14.93.44-25.363-.262-5.237-.809-9.715-.291-10.3.706-.8 2.263-.658 4.994-.587z" transform="translate(202.106 37.75)" style="fill:#ffdba7;fill-rule:evenodd"/>
        <path data-name="패스 228" d="M49.907 79.4c.666 2.434 1.715 4.862 1.8 7.725a42.3 42.3 0 0 1-1.073 8.411c-2.584.012-5.006-.055-7.676-.221-.058-2.974-.225-6.16-.423-10.163-.262-5.237-.809-9.715-.291-10.3a1.389 1.389 0 0 1 .387-.307 9.305 9.305 0 0 1 2.3-1.462 50.975 50.975 0 0 1 11.634-5c4.579-1.4 7.389-4.317 10.6-7.743l6.588-.659c4.087 7.059 3.306 11.833 1.485 14.755-2.267 3.639-7.553 4.612-13.122 4.968a116.268 116.268 0 0 1-12.209-.004z" transform="translate(202.106 33.758)" style="fill:#0f4283;fill-rule:evenodd"/>
        <path data-name="패스 229" d="M63.589 81.795c3.334-.285 6.413-2.074 10.243-2.127a34.318 34.318 0 0 1 6.675.852 33.511 33.511 0 0 0-.426 8.044c-2.472.039-5.158.135-8.368.244-5.241.178-9.727.652-10.305.125-.789-.72-.62-2.274-.507-5z" transform="translate(209.218 41.328)" style="fill:#072c5e;fill-rule:evenodd"/>
        <path data-name="패스 230" d="M64.234 32.8c-.327 8.182.807 10.01 6.724 8.664-4.556 5.3-11.036 6.352-14.71-.92-.1-.207-3.211-7.341-3.182-7.628s-.649-3.094-.609-3.345a7.51 7.51 0 0 1 1.45-4.008c2.105-2.567 6.928-2.239 9.15.647 1.467 1.905 1.268 4.318 1.177 6.59z" transform="translate(206.055 20.175)" style="fill:#171616;fill-rule:evenodd"/>
        <path data-name="패스 231" d="m53.16 36.571-.073-.365c.412 3 1.65 6.294.341 7.331-1.18.933-3.231.956-4.452 1.775-1.834 1.23 1.451 9.667 2.121 11.756.331 1.03 17.359-2.4 18.637-5.472a9.974 9.974 0 0 1 1.115-2.034c.072-.364-1.922-8.408-1.922-8.408-2.111-1.133-6.627 1.777-8.68-1.568-.607-.99-.927-1.328-1.191-5.093z" transform="translate(204.529 24.216)" style="fill:#ffdba7;fill-rule:evenodd"/>
        <path data-name="패스 232" d="m51.879 36.571-.073-.365c.15 1.1.411 2.231.618 3.279 1.8 1.93 6.453 1.653 8.28 1.537a3.241 3.241 0 0 1-1.737-1.437c-.607-.99-.927-1.328-1.191-5.093z" transform="translate(205.809 24.216)" style="fill:#f0c17d;fill-rule:evenodd"/>
        <path data-name="패스 233" d="M52.834 42a10.432 10.432 0 0 1-2.218.767c-.5 2.577-.691 5.485-1.373 8.089-1.623 6.2 2.1 5.58 3.607 11.448 1.136 4.431 2.326 8.72 2.467 13.2a18.732 18.732 0 0 0 4.037-1.826c4.008-2.1 9.526-4.233 14.137-1.024-.626-5.227-5.144-8.051-5.4-12.678a23.084 23.084 0 0 1 1.645-10.349c-6.138-.248-6.2-5.206-4.764-10.313a8.527 8.527 0 0 1-2.536.046c-1.433 4.456-4.7 9-6.96 9.845-2.66-1.183-2.886-3.895-2.642-7.205z" transform="translate(204.686 26.041)" style="fill:#d10000;fill-rule:evenodd"/>
        <path data-name="패스 234" d="M55.846 56.993a6.671 6.671 0 0 0 3.641.114 21.3 21.3 0 0 0 .925 4.982c1.143 4.26 3.024 5.277 4.391 8.943a9.293 9.293 0 0 1 6.032 1.617c-.626-5.227-5.144-8.051-5.4-12.678a23.084 23.084 0 0 1 1.645-10.349c-6.138-.248-6.2-5.206-4.764-10.313a8.527 8.527 0 0 1-2.536.046c-.048 3.206-1.365 10.216-1.091 14a3.144 3.144 0 0 1-2.843 3.638z" transform="translate(207.34 26.041)" style="fill:#bd0000;fill-rule:evenodd"/>
        <path data-name="패스 235" d="M52.119 25.846c-6 2.343-2.995 11.625.67 13.093 4.488-.265 9.51 4.043 7.412-9.414-.675-4.335-4.844-4.945-8.082-3.679z" transform="translate(204.635 20.72)" style="fill:#2b2828;fill-rule:evenodd"/>
        <path data-name="패스 236" d="M49.73 29.112c-1.354 3.488-1.142 10.043 2.47 12.941 1.005.807 5.34-1.906 5.936-3.308.1.23.076.313.643.236s.7-1.153.9-1.489.228-.72.484-1.217c.331-.648.605-1.652.125-1.879a.8.8 0 0 0-.644-.036c.969-2.83 1.007-5.36-2.497-7.46-2.457-1.482-6.012-1.406-7.417 2.212z" transform="translate(204.732 20.997)" style="fill:#ffdba7;fill-rule:evenodd"/>
        <path data-name="패스 237" d="M49.874 28.147c-.081 5.228 7.943 4.338 7.883 8.364.769-1.42 1.484-1.326 1.682-.665a5.372 5.372 0 0 1-.243 2.305c.953-.585 3.113-5.736 1.438-9.377-2.909-6.32-10.987-3.346-10.76-.627z" transform="translate(205.076 20.627)" style="fill:#2b2828;fill-rule:evenodd"/>
        <path data-name="패스 238" d="m74.606 47.923 4.808 4.6c1.533 2.209-3.049 3.407-5.226 2l-10.352-6.676c-2.533-6.515-2.008-8.873-.288-8.532 1.111.221 2.736 1.5 4.554 2.949 2.26 1.802 4.753 3.985 6.504 5.659z" transform="translate(209.707 26.031)" style="fill:#ffdba7;fill-rule:evenodd"/>
        <path data-name="패스 239" d="M78.3 50.935c-3.8 6.243-5.5 7.987-11.007 13.879l-2.218-2.085c3.917-4.629 4.34-7.175 7.244-13.272 2.77-.426 5.019-1.372 5.783-.513a1.636 1.636 0 0 1 .198 1.991z" transform="translate(210.836 29.559)" style="fill:#ffdba7;fill-rule:evenodd"/>
        <path data-name="패스 240" d="M70.893 59.909c-2.166 2.549-3.16 3.51-6.6 2.086l-3.829 2.617-1.252-1.291 3-4.437 4.74.4a10.675 10.675 0 0 0 1.744-1.7z" transform="translate(208.615 32.964)" style="fill:#ffdba7;fill-rule:evenodd"/>
        <g data-name="그룹 304">
            <path data-name="패스 241" d="M37.342 98.754c1.235-.175 6.607-2.861 7.535-3.553 1.066-.8-.185-2.078-1.114-1.5-.5.309-3.108 2.376-4.626 3.531-.94.717-1.8 1.344-2.039 1.537-.062.047.052.012.244-.015z" transform="translate(200.231 46.589)" style="fill:#0f4283;fill-rule:evenodd"/>
            <path data-name="패스 242" d="M45.584 102.714c1.794-.134 6.934.261 8.247-1.588.259-.367-.15-1.016-.535-2.128.339-2.377-.374-2.622-1.515-4.921-1.558 1.431-3.145 2.27-5.106 1.208-1.222-.662-.938-.687-1.626-.461-1.615.528-3.572 2.886-7.724 4.047-1.348.378-2.352.334-2.986.825a2 2 0 0 0-.1 2.489c.855 1.359 2.911 1.728 5.074 1.674a29.558 29.558 0 0 0 6.271-1.145z" transform="translate(199.013 46.787)" style="fill:#d8ebed;fill-rule:evenodd"/>
            <path data-name="패스 243" d="M45.584 101.364c1.794-.134 6.934.261 8.247-1.588.259-.367-.15-1.016-.535-2.128v-.008c-1.733 1.431-4.43 1.473-6.236 1.441a8.108 8.108 0 0 0-2.551.662c-4.036 1.318-8.3 1.63-10.588-.676a2.317 2.317 0 0 0 .314 1.768c.855 1.359 2.911 1.728 5.074 1.674a29.558 29.558 0 0 0 6.275-1.145z" transform="translate(199.013 48.137)" style="fill:#0f4283;fill-rule:evenodd"/>
        </g>
        <g data-name="그룹 305">
            <path data-name="패스 244" d="M86.763 94.588c.171-1.235-.929-7.139-1.339-8.223-.472-1.244-2.049-.394-1.754.658.159.567 1.427 3.641 2.121 5.419.429 1.1.794 2.107.916 2.385.031.073.029-.047.056-.239z" transform="translate(217.865 43.632)" style="fill:#072c5e;fill-rule:evenodd"/>
            <path data-name="패스 245" d="M92.334 90.556c.364-1.761 2.159-6.593.745-8.365-.28-.35-1.019-.137-2.194-.073-2.191-.98-2.624-.363-5.147.1.947 1.892 1.315 3.648-.247 5.241-.972.991-.917.713-.889 1.437.063 1.7 1.79 4.229 1.761 8.54-.01 1.4-.328 2.352-.03 3.1a2 2 0 0 0 2.365.783C90.24 100.87 91.16 99 91.7 96.9a29.549 29.549 0 0 0 .634-6.344z" transform="translate(218.228 42.059)" style="fill:#d8ebed;fill-rule:evenodd"/>
            <path data-name="패스 246" d="M91.7 90.446c.364-1.761 2.159-6.593.745-8.365-.28-.35-1.019-.137-2.194-.073h-.007c.9 2.06.2 4.664-.334 6.392a8.1 8.1 0 0 0-.066 2.633c.156 4.244-.722 8.431-3.568 9.991a2.321 2.321 0 0 0 1.787.186c1.543-.447 2.463-2.322 3.007-4.416a29.549 29.549 0 0 0 .63-6.348z" transform="translate(218.865 42.169)" style="fill:#072c5e;fill-rule:evenodd"/>
        </g>
        <path data-name="패스 247" d="m53.3 64.624 3.093-1.8.145-2.27-3.475-.7c-.877.186-.825 3.81-.044 4.615a.463.463 0 0 0 .281.155z" transform="translate(206.043 33.824)" style="fill:#ffdba7;fill-rule:evenodd"/>
    </g>
</svg>
