<svg xmlns="http://www.w3.org/2000/svg" width="24" height="24" viewBox="0 0 24 24">
    <path data-name="사각형 165" style="fill:transparent" d="M0 0h24v24H0z"/>
    <g data-name="그룹 671">
        <path data-name="패스 10295" d="M2069.568-2701.878a8.559 8.559 0 0 0-5.712-1.706c-4.963 0-7.7 2.346-7.7 6.607a.573.573 0 0 0 .573.573h14.247a.573.573 0 0 0 .573-.573 6.133 6.133 0 0 0-1.981-4.901zm-12.243 4.328v-.035c.24-3.22 2.436-4.853 6.528-4.853s6.289 1.633 6.529 4.853v.035z" transform="translate(-2052.062 2717.104)" style="fill:#1a1a1a"/>
        <path data-name="패스 10296" d="M2174.752-2983.583a4.171 4.171 0 0 0 3.983-4.327 3.936 3.936 0 0 0-3.983-4.064 3.936 3.936 0 0 0-3.983 4.064 4.171 4.171 0 0 0 3.983 4.327zm0-7.244a2.815 2.815 0 0 1 2.837 2.917 3.027 3.027 0 0 1-2.837 3.181 3.027 3.027 0 0 1-2.837-3.181 2.784 2.784 0 0 1 2.837-2.917z" transform="translate(-2162.959 2996.15)" style="fill:#1a1a1a"/>
    </g>
</svg>
