<svg xmlns="http://www.w3.org/2000/svg" width="22" height="22" viewBox="0 0 22 22">
    <path data-name="사각형 165" style="fill:transparent" d="M0 0h22v22H0z"/>
    <g data-name="그룹 678">
        <g data-name="그룹 673">
            <g data-name="그룹 672">
                <path data-name="패스 10298" d="M9.284 0a9.284 9.284 0 1 0 9.284 9.284A9.279 9.279 0 0 0 9.284 0zm0 17.273a7.989 7.989 0 1 1 7.989-7.989 8 8 0 0 1-7.989 7.989z" style="fill:#1a1a1a" transform="translate(1.4 1.432)"/>
            </g>
        </g>
        <g data-name="그룹 675">
            <g data-name="그룹 674">
                <path data-name="패스 10299" d="M223.744 323.924a.941.941 0 0 0 0 1.882.941.941 0 0 0 0-1.882z" transform="translate(-213.334 -310.744)" style="fill:#1a1a1a"/>
            </g>
        </g>
        <g data-name="그룹 677">
            <g data-name="그룹 676">
                <path data-name="패스 10300" d="M188.829 127.469c-1.65 0-2.408.978-2.408 1.638a.7.7 0 0 0 .733.7c.66 0 .391-.941 1.638-.941.611 0 1.1.269 1.1.831 0 .66-.684 1.039-1.088 1.381a2.237 2.237 0 0 0-.819 1.858c0 .635.171.819.672.819.6 0 .721-.269.721-.5a1.535 1.535 0 0 1 .684-1.528 3.128 3.128 0 0 0 1.369-2.236c0-1.154-1.038-2.022-2.602-2.022z" transform="translate(-178.26 -121.414)" style="fill:#1a1a1a"/>
            </g>
        </g>
    </g>
</svg>
