<svg xmlns="http://www.w3.org/2000/svg" width="24" height="24" viewBox="0 0 24 24">
    <path data-name="사각형 10" style="fill:transparent" d="M0 0h24v24H0z"/>
    <g data-name="그룹 303">
        <g data-name="그룹 301">
            <path data-name="패스 218" d="M-592.49 289.6h-5.079a3.89 3.89 0 0 0-3.884 3.875v3.875a1.216 1.216 0 0 1 .909-.41h.765c1.688-.282 1.568-1.711 1.794-2.993 3.5 2.993 5.895.585 7.705 2.993h.766a1.218 1.218 0 0 1 .909.41v-3.875a3.891 3.891 0 0 0-3.884-3.875z" transform="translate(606.734 -289.604)" style="fill:#dc0b20"/>
        </g>
        <g data-name="그룹 302">
            <path data-name="패스 219" d="M-517.5 453.992a.491.491 0 0 0-.491.49v.6a.49.49 0 0 0 .491.49.49.49 0 0 0 .49-.49v-.6a.49.49 0 0 0-.49-.49z" transform="translate(527.369 -445.929)" style="fill:#111828"/>
            <path data-name="패스 220" d="M-442.473 455.575a.49.49 0 0 0 .491-.49v-.6a.491.491 0 0 0-.491-.49.491.491 0 0 0-.49.49v.6a.49.49 0 0 0 .49.49z" transform="translate(456.017 -445.929)" style="fill:#111828"/>
            <path data-name="패스 221" d="M-651.481 381.207a14.336 14.336 0 0 0-4.347-1.436l-.481-.1v-.871a5.238 5.238 0 0 0 2.885-4.19h.3a1.706 1.706 0 0 0 1.706-1.7 1.707 1.707 0 0 0-1.706-1.7h-.531a3.959 3.959 0 0 0-3.247-1.266 6.4 6.4 0 0 1-4.374-1.609.491.491 0 0 0-.485-.089.49.49 0 0 0-.317.377c-.037.212-.065.424-.092.63-.152 1.159-.279 1.779-1.263 1.957h-.72a1.707 1.707 0 0 0-1.706 1.7 1.706 1.706 0 0 0 1.706 1.7h.3a5.238 5.238 0 0 0 2.886 4.191v.867l-.48.1a14.337 14.337 0 0 0-4.347 1.436 4.867 4.867 0 0 0-2.547 4.43v1.689a.49.49 0 0 0 .49.49h18.429a.491.491 0 0 0 .491-.49v-1.689a4.867 4.867 0 0 0-2.547-4.43zm-1.919-9.021h.276a.725.725 0 0 1 .725.723.724.724 0 0 1-.725.721h-.276zm-10.48 1.444h-.274a.724.724 0 0 1-.725-.721.725.725 0 0 1 .725-.723h.274zm.981.49v-2.037c1.3-.4 1.535-1.5 1.669-2.475a7.371 7.371 0 0 0 4.272 1.31 3.061 3.061 0 0 1 2.576.947v2.255a4.258 4.258 0 0 1-4.259 4.247 4.258 4.258 0 0 1-4.259-4.247zm5.617 6.029a.487.487 0 0 0-.008.088 1.349 1.349 0 0 1-1.35 1.344 1.348 1.348 0 0 1-1.349-1.344.493.493 0 0 0-.008-.088.483.483 0 0 0 .008-.089v-.889a5.243 5.243 0 0 0 1.349.176 5.245 5.245 0 0 0 1.35-.176v.89a.5.5 0 0 0 .009.089zm7.366 6.685h-2.994V385.2a.491.491 0 0 0-.491-.49.49.49 0 0 0-.49.49v1.633h-9.5V385.2a.491.491 0 0 0-.491-.49.49.49 0 0 0-.49.49v1.633h-2.994v-1.2a3.9 3.9 0 0 1 2.066-3.586 13.361 13.361 0 0 1 4.047-1.319l.321-.067a2.332 2.332 0 0 0 2.29 1.9 2.333 2.333 0 0 0 2.291-1.9l.321.067a13.36 13.36 0 0 1 4.047 1.319 3.9 3.9 0 0 1 2.066 3.586v1.2z" transform="translate(670.344 -364.357)" style="fill:#111828"/>
        </g>
    </g>
</svg>
