<svg xmlns="http://www.w3.org/2000/svg" width="24" height="24" viewBox="0 0 24 24">
    <path data-name="사각형 10" style="fill:transparent" d="M0 0h24v24H0z"/>
    <g data-name="그룹 300">
        <g data-name="그룹 298">
            <path data-name="패스 215" d="M1614.469 456.23a1.252 1.252 0 0 0-.4-.907 1.679 1.679 0 0 0-1.219-.445 1.564 1.564 0 0 0-1.444 1.191 1.586 1.586 0 0 0-.423-.072h-.052a1.559 1.559 0 0 0-1.565 1.548v4.472l-3.2 3.106a2.57 2.57 0 0 0-.776 1.834v1.308a3.568 3.568 0 0 0 .63 2.03l.287.417v3.415a.454.454 0 0 0 .454.454h3.749a.454.454 0 0 0 .454-.454V471.2l2.646-2.205a2.417 2.417 0 0 0 .873-1.866c-.009-2.865-.014-9.729-.014-10.899zm-3.544.673h.029a.658.658 0 0 1 .4.151v4.526a1.688 1.688 0 0 0-1.084-.112v-3.929a.648.648 0 0 1 .654-.639zm2.1 11.393-2.81 2.341a.454.454 0 0 0-.163.349v2.684h-2.84v-3.1a.455.455 0 0 0-.08-.257l-.367-.534a2.662 2.662 0 0 1-.471-1.515v-1.308a1.656 1.656 0 0 1 .5-1.182l3.3-3.2a.79.79 0 0 1 1.032-.063l.077.068a.738.738 0 0 1-.005 1.045l-.006.006-2.927 3.042a.454.454 0 1 0 .655.63l2.924-3.039a1.649 1.649 0 0 0 .417-1.623v-6.178a.67.67 0 0 1 .624-.67.777.777 0 0 1 .55.195.346.346 0 0 1 .122.25c0 1.165 0 8.035.009 10.9a1.511 1.511 0 0 1-.546 1.167z" transform="translate(-1591.213 -451.768)" style="fill:#111828"/>
            <path data-name="패스 216" d="m1301.833 465.121-3.2-3.106v-4.472a1.559 1.559 0 0 0-1.565-1.548h-.054a1.435 1.435 0 0 1-1.865-1.118 1.678 1.678 0 0 0-1.219.445 1.252 1.252 0 0 0-.4.907c0 1.165 0 8.034-.009 10.9a2.418 2.418 0 0 0 .873 1.866l2.646 2.205v2.925a.455.455 0 0 0 .454.454h3.749a.455.455 0 0 0 .455-.454v-3.415l.287-.417a3.567 3.567 0 0 0 .63-2.03v-1.308a2.569 2.569 0 0 0-.782-1.834zm-4.793-8.217h.026a.649.649 0 0 1 .657.639v3.929a1.689 1.689 0 0 0-1.084.112v-4.526a.659.659 0 0 1 .4-.158zm4.661 11.359a2.662 2.662 0 0 1-.47 1.515l-.367.534a.455.455 0 0 0-.08.257v3.1h-2.84v-2.684a.454.454 0 0 0-.164-.349l-2.81-2.341a1.511 1.511 0 0 1-.545-1.167c0-2.864.009-9.734.009-10.9a.345.345 0 0 1 .122-.25.777.777 0 0 1 .55-.195.67.67 0 0 1 .624.67v6.178a1.648 1.648 0 0 0 .417 1.623l2.924 3.039a.454.454 0 1 0 .655-.63l-2.926-3.042-.006-.006a.739.739 0 0 1-.005-1.045l.077-.068a.79.79 0 0 1 1.032.063l3.3 3.2a1.656 1.656 0 0 1 .5 1.182z" transform="translate(-1293.515 -451.768)" style="fill:#111828"/>
        </g>
        <g data-name="그룹 299">
            <path data-name="패스 217" d="M1440.123 430.5a2.853 2.853 0 0 0-2.187 1l-.024.026a2.861 2.861 0 0 0-2.211-1.023 3.175 3.175 0 0 0-3.1 3.321c0 2.28 2.05 3.15 4.724 5.5a.915.915 0 0 0 .589.216h.024a.915.915 0 0 0 .565-.215c2.674-2.352 4.724-3.221 4.724-5.5a3.175 3.175 0 0 0-3.104-3.325z" transform="translate(-1426.28 -428.496)" style="fill:#5b85d9"/>
        </g>
    </g>
</svg>
