<svg xmlns="http://www.w3.org/2000/svg" width="24" height="24" viewBox="0 0 24 24">
    <path data-name="사각형 10" style="fill:transparent" d="M0 0h24v24H0z"/>
    <path data-name="패스 10303" d="M39.577 38.709h-.869V22.2a.869.869 0 0 0-.869-.869h-13.9a.869.869 0 0 0-.869.869v16.509h-.87a.869.869 0 1 0 0 1.738h17.377a.869.869 0 1 0 0-1.738zm-11.294 0v-3.475H33.5v3.475zm6.95 0v-4.344a.869.869 0 0 0-.869-.869h-6.95a.869.869 0 0 0-.869.869v4.344h-1.737V23.071h12.163v15.638zm-6.95-13.032v.869a.869.869 0 1 1-1.738 0v-.869a.869.869 0 0 1 1.738 0zm3.475 0v.869a.869.869 0 1 1-1.738 0v-.869a.869.869 0 0 1 1.738 0zm3.475 0v.869a.869.869 0 1 1-1.738 0v-.869a.869.869 0 0 1 1.738 0zm-6.95 4.344v.869a.869.869 0 0 1-1.738 0v-.869a.869.869 0 1 1 1.738 0zm3.475 0v.869a.869.869 0 0 1-1.738 0v-.869a.869.869 0 1 1 1.738 0zm3.475 0v.869a.869.869 0 0 1-1.738 0v-.869a.869.869 0 1 1 1.738 0z" transform="translate(-18.889 -18.842)" style="fill:#999"/>
</svg>
