<svg xmlns="http://www.w3.org/2000/svg" width="48" height="48" viewBox="0 0 48 48">
    <path data-name="사각형 10" style="fill:transparent" d="M0 0h48v48H0z"/>
    <g data-name="그룹 280">
        <g data-name="그룹 278">
            <path data-name="패스 197" d="M142.234 721.9h-5.822v-5.822H129.4v5.822h-5.822v7.013h5.822v5.822h7.013v-5.822h5.822z" transform="translate(-108.661 -698.52)" style="fill:#d10000"/>
        </g>
        <g data-name="그룹 279">
            <path data-name="패스 198" d="M27.582 568.627h-1.146v-2.794a.752.752 0 0 0-.752-.752h-6.2v-.615a2.078 2.078 0 0 0-2.075-2.075H4.416a2.078 2.078 0 0 0-2.075 2.075v.615h-6.2a.752.752 0 0 0-.752.752v2.794h-1.145a2.579 2.579 0 0 0-2.576 2.573v24.14a2.579 2.579 0 0 0 2.576 2.576h33.338a2.579 2.579 0 0 0 2.576-2.576V571.2a2.579 2.579 0 0 0-2.576-2.576zm-2.649-2.042v2.042h-5.448v-2.042zm-21.088-2.119a.572.572 0 0 1 .572-.572h12.992a.572.572 0 0 1 .572.572v4.161H3.845zm-6.952 2.118h5.448v2.042h-5.448zm31.762 28.758a1.074 1.074 0 0 1-1.072 1.072H-5.756a1.074 1.074 0 0 1-1.072-1.072V571.2a1.074 1.074 0 0 1 1.072-1.072h33.338a1.074 1.074 0 0 1 1.072 1.072v24.14z" transform="translate(13.332 -556.391)" style="fill:#111828"/>
            <path data-name="패스 199" d="M403.943 692.453a.752.752 0 0 0-1.063 1.063l2.879 2.879a.752.752 0 0 0 1.063-1.063z" transform="translate(-366.763 -676.472)" style="fill:#111828"/>
            <path data-name="패스 200" d="m37.478 692.453-2.878 2.879a.752.752 0 0 0 1.063 1.063l2.879-2.879a.752.752 0 1 0-1.063-1.063z" transform="translate(-26.168 -676.472)" style="fill:#111828"/>
            <path data-name="패스 201" d="m405.76 930.019-2.879 2.879a.752.752 0 0 0 1.063 1.063l2.879-2.879a.752.752 0 0 0-1.063-1.063z" transform="translate(-366.765 -896.179)" style="fill:#111828"/>
            <path data-name="패스 202" d="M35.662 930.019a.752.752 0 0 0-1.063 1.063l2.879 2.879a.752.752 0 0 0 1.063-1.063z" transform="translate(-26.168 -896.179)" style="fill:#111828"/>
        </g>
    </g>
</svg>
