<svg xmlns="http://www.w3.org/2000/svg" width="48" height="48" viewBox="0 0 48 48">
    <g style="opacity:.7">
        <circle data-name="타원 8" cx="9.6" cy="9.6" r="9.6" transform="translate(14.416 6.4)" style="fill:#fff"/>
        <path data-name="패스 10301" d="M-562.16 39.984A24 24 0 0 0-586.176 16a24 24 0 0 0-23.984 24.016 23.89 23.89 0 0 0 4.643 14.172l.057.07A23.964 23.964 0 0 0-586.144 64a24 24 0 0 0 18.544-8.784l.832-1.024-.021-.025a24 24 0 0 0 4.629-14.183zM-586.144 19.2a20.8 20.8 0 0 1 20.8 20.8 20.7 20.7 0 0 1-3.594 11.69 24.073 24.073 0 0 0-1.97-1.814 24 24 0 0 0-32.442 1.813A20.7 20.7 0 0 1-606.944 40a20.8 20.8 0 0 1 20.8-20.8z" transform="translate(610.16 -16)" style="fill:#fff"/>
    </g>
</svg>
