<svg xmlns="http://www.w3.org/2000/svg" width="48" height="48" viewBox="0 0 48 48">
    <path data-name="사각형 10" style="fill:transparent" d="M0 0h48v48H0z"/>
    <g data-name="그룹 303">
        <g data-name="그룹 301">
            <path data-name="패스 218" d="M-587.32 289.6h-8.008a6.134 6.134 0 0 0-6.125 6.109v6.109a1.917 1.917 0 0 1 1.434-.647h1.206c2.661-.444 2.473-2.7 2.828-4.719 5.511 4.719 9.3.923 12.15 4.719h1.208a1.92 1.92 0 0 1 1.434.647v-6.109a6.136 6.136 0 0 0-6.125-6.109z" transform="translate(615.626 -283.604)" style="fill:#5b85d9"/>
        </g>
        <g data-name="그룹 302">
            <path data-name="패스 219" d="M-517.222 453.992a.773.773 0 0 0-.773.773v.949a.773.773 0 0 0 .773.773.773.773 0 0 0 .773-.773v-.949a.773.773 0 0 0-.773-.773z" transform="translate(538.623 -435.278)" style="fill:#111828"/>
            <path data-name="패스 220" d="M-442.19 456.488a.773.773 0 0 0 .773-.773v-.949a.773.773 0 0 0-.773-.773.773.773 0 0 0-.773.773v.949a.773.773 0 0 0 .773.773z" transform="translate(469.394 -435.278)" style="fill:#111828"/>
            <path data-name="패스 221" d="M-641.755 388.7a22.608 22.608 0 0 0-6.854-2.264c-.262-.055-.517-.108-.758-.16v-1.366a8.259 8.259 0 0 0 4.549-6.607h.472a2.69 2.69 0 0 0 2.689-2.684 2.691 2.691 0 0 0-2.689-2.687h-.837c-1.519-1.795-3.271-1.893-5.12-2a10.083 10.083 0 0 1-6.9-2.537.774.774 0 0 0-.764-.141.773.773 0 0 0-.5.594c-.059.334-.1.669-.145.994-.24 1.828-.44 2.8-1.992 3.086h-1.135a2.691 2.691 0 0 0-2.689 2.687 2.69 2.69 0 0 0 2.689 2.684h.47a8.259 8.259 0 0 0 4.551 6.608v1.368c-.241.052-.5.105-.758.16a22.609 22.609 0 0 0-6.854 2.264 7.675 7.675 0 0 0-4.016 6.985v2.663a.773.773 0 0 0 .773.773h29.058a.773.773 0 0 0 .773-.773v-2.663a7.675 7.675 0 0 0-4.016-6.985zm-3.026-14.224h.435a1.143 1.143 0 0 1 1.143 1.14 1.141 1.141 0 0 1-1.143 1.138h-.435zm-16.524 2.278h-.432a1.141 1.141 0 0 1-1.143-1.138 1.143 1.143 0 0 1 1.143-1.14h.432zm1.547.773v-3.212c2.045-.627 2.42-2.367 2.632-3.9a11.623 11.623 0 0 0 6.737 2.066c1.7.095 2.958.164 4.062 1.493v3.556a6.713 6.713 0 0 1-6.715 6.7 6.713 6.713 0 0 1-6.715-6.7zm8.858 9.507a.773.773 0 0 0-.013.138 2.127 2.127 0 0 1-2.129 2.119 2.126 2.126 0 0 1-2.127-2.119.773.773 0 0 0-.013-.138.767.767 0 0 0 .013-.14v-1.4a8.266 8.266 0 0 0 2.127.277 8.265 8.265 0 0 0 2.129-.278v1.4a.779.779 0 0 0 .013.143zm11.615 10.54h-4.721V395a.773.773 0 0 0-.773-.773.773.773 0 0 0-.773.773v2.574h-14.976V395a.773.773 0 0 0-.773-.773.773.773 0 0 0-.773.773v2.574h-4.726v-1.89a6.143 6.143 0 0 1 3.258-5.654 21.071 21.071 0 0 1 6.381-2.08l.505-.106a3.677 3.677 0 0 0 3.611 2.994 3.679 3.679 0 0 0 3.613-2.994l.505.106a21.071 21.071 0 0 1 6.381 2.08 6.143 6.143 0 0 1 3.258 5.654v1.89z" transform="translate(677.344 -356.133)" style="fill:#111828"/>
        </g>
    </g>
</svg>
