<svg xmlns="http://www.w3.org/2000/svg" width="48" height="48" viewBox="0 0 48 48">
    <path data-name="사각형 10" style="fill:transparent" d="M0 0h48v48H0z"/>
    <g data-name="그룹 288">
        <g data-name="그룹 281">
            <path data-name="패스 203" d="M743.353 236.959a.8.8 0 0 0-.8.8v12.159a.968.968 0 0 1-.962.971h-20.068a.8.8 0 0 0-.515.186l-1.557 1.295v-.67a.8.8 0 0 0-.8-.8h-2.819a.968.968 0 0 1-.962-.971v-20.343a.968.968 0 0 1 .962-.971h21.846a.8.8 0 0 0 0-1.609h-21.85a2.579 2.579 0 0 0-2.572 2.581v20.337a2.579 2.579 0 0 0 2.572 2.581h2.015v1.587a.8.8 0 0 0 1.319.619l2.652-2.206h19.773a2.579 2.579 0 0 0 2.572-2.581v-12.16a.8.8 0 0 0-.8-.8z" transform="translate(-709.441 -213.547)" style="fill:#111828"/>
            <path data-name="패스 204" d="M789.073 392.489a2.432 2.432 0 1 0 2.432-2.431 2.434 2.434 0 0 0-2.432 2.431zm3.254 0a.823.823 0 1 1-.823-.822.823.823 0 0 1 .823.822z" transform="translate(-779.158 -363.481)" style="fill:#111828"/>
            <path data-name="패스 205" d="M875.065 392.489a2.432 2.432 0 1 0 2.432-2.431 2.434 2.434 0 0 0-2.432 2.431zm3.254 0a.823.823 0 1 1-.823-.822.823.823 0 0 1 .823.822z" transform="translate(-858.231 -363.481)" style="fill:#111828"/>
            <path data-name="패스 206" d="M963.488 390.058a2.431 2.431 0 1 0 2.432 2.431 2.434 2.434 0 0 0-2.432-2.431zm0 3.254a.822.822 0 1 1 .823-.822.823.823 0 0 1-.823.822z" transform="translate(-937.303 -363.481)" style="fill:#111828"/>
        </g>
        <g data-name="그룹 287">
            <g data-name="그룹 282" transform="translate(22.814 5)">
                <ellipse data-name="타원 1" cx="11.098" cy="11.128" rx="11.098" ry="11.128" style="fill:#5b85d9"/>
            </g>
            <g data-name="그룹 286">
                <g data-name="그룹 285">
                    <g data-name="그룹 283">
                        <path data-name="패스 207" d="M1061.507 248.837h-3.187a.8.8 0 0 1-.8-.8v-6.707a.8.8 0 0 1 .8-.8h3.187a.8.8 0 0 1 .8.8v6.707a.8.8 0 0 1-.8.8zm-2.383-1.609h1.578v-5.1h-1.578z" transform="translate(-1026.001 -225.975)" style="fill:#111828"/>
                    </g>
                    <g data-name="그룹 284">
                        <path data-name="패스 208" d="M1061.507 168.471h-3.187a.8.8 0 0 1-.8-.8v-3.2a.8.8 0 0 1 .8-.8h3.187a.8.8 0 0 1 .8.8v3.2a.8.8 0 0 1-.8.8zm-2.383-1.609h1.578v-1.588h-1.578z" transform="translate(-1026.001 -155.302)" style="fill:#111828"/>
                    </g>
                </g>
            </g>
        </g>
    </g>
</svg>
