<svg xmlns="http://www.w3.org/2000/svg" width="48" height="48" viewBox="0 0 48 48">
    <path data-name="사각형 10" style="fill:transparent" d="M0 0h48v48H0z"/>
    <g data-name="그룹 300">
        <g data-name="그룹 298">
            <path data-name="패스 215" d="M1621 457.2a2.153 2.153 0 0 0-.694-1.56 2.887 2.887 0 0 0-2.1-.766 2.689 2.689 0 0 0-2.482 2.047 2.727 2.727 0 0 0-.727-.125h-.089a2.68 2.68 0 0 0-2.692 2.662v7.689l-5.505 5.34a4.418 4.418 0 0 0-1.334 3.154v2.249a6.133 6.133 0 0 0 1.084 3.49l.493.718v5.871a.781.781 0 0 0 .781.781h6.445a.781.781 0 0 0 .781-.781v-5.03l4.55-3.791a4.157 4.157 0 0 0 1.5-3.209c.001-4.921-.011-16.731-.011-18.739zm-6.093 1.158h.05a1.132 1.132 0 0 1 .684.259h.006v7.782a2.9 2.9 0 0 0-1.865-.192v-6.756a1.115 1.115 0 0 1 1.125-1.1zm3.608 19.588-4.831 4.026a.781.781 0 0 0-.281.6v4.614h-4.883v-5.333a.781.781 0 0 0-.137-.443l-.631-.918a4.577 4.577 0 0 1-.809-2.6v-2.249a2.846 2.846 0 0 1 .86-2.032l5.674-5.5.008-.008a1.358 1.358 0 0 1 1.774-.108l.132.117a1.27 1.27 0 0 1-.009 1.8l-.011.011-5.032 5.23a.781.781 0 1 0 1.126 1.083L1616.5 471a2.836 2.836 0 0 0 .717-2.791v-10.618a1.152 1.152 0 0 1 1.073-1.151 1.336 1.336 0 0 1 .945.335.594.594 0 0 1 .21.43c0 2 .008 13.814.016 18.739a2.6 2.6 0 0 1-.938 2.006z" transform="translate(-1577.019 -446.971)" style="fill:#111828"/>
            <path data-name="패스 216" d="m1307.816 472.491-5.505-5.34v-7.689a2.68 2.68 0 0 0-2.692-2.662h-.093a2.467 2.467 0 0 1-3.206-1.923 2.884 2.884 0 0 0-2.1.766 2.153 2.153 0 0 0-.694 1.56c0 2-.008 13.813-.016 18.737a4.158 4.158 0 0 0 1.5 3.209l4.55 3.791v5.03a.781.781 0 0 0 .781.781h6.445a.781.781 0 0 0 .781-.781v-5.87l.493-.718a6.133 6.133 0 0 0 1.084-3.49v-2.249a4.418 4.418 0 0 0-1.328-3.152zm-8.242-14.128h.045a1.116 1.116 0 0 1 1.129 1.1v6.756a2.9 2.9 0 0 0-1.864.192v-7.782h.006a1.133 1.133 0 0 1 .684-.266zm8.014 19.53a4.577 4.577 0 0 1-.809 2.6l-.631.918a.782.782 0 0 0-.137.443v5.333h-4.883v-4.614a.781.781 0 0 0-.281-.6l-4.831-4.026a2.6 2.6 0 0 1-.938-2.006c.007-4.925.016-16.736.016-18.739a.594.594 0 0 1 .21-.43 1.336 1.336 0 0 1 .945-.335 1.152 1.152 0 0 1 1.073 1.151v10.623a2.836 2.836 0 0 0 .717 2.791l5.027 5.225a.781.781 0 1 0 1.126-1.083l-5.032-5.23-.011-.011a1.27 1.27 0 0 1-.009-1.8l.132-.117a1.357 1.357 0 0 1 1.774.108l.008.008 5.674 5.5a2.847 2.847 0 0 1 .86 2.032z" transform="translate(-1289.515 -446.971)" style="fill:#111828"/>
        </g>
        <g data-name="그룹 299">
            <path data-name="패스 217" d="M1445.535 430.5a4.906 4.906 0 0 0-3.76 1.714l-.041.045a4.919 4.919 0 0 0-3.8-1.76 5.46 5.46 0 0 0-5.333 5.711c0 3.921 3.525 5.416 8.123 9.459a1.574 1.574 0 0 0 1.012.371h.041a1.572 1.572 0 0 0 .971-.369c4.6-4.043 8.123-5.539 8.123-9.459a5.46 5.46 0 0 0-5.336-5.712z" transform="translate(-1417.734 -424.496)" style="fill:#d10000"/>
        </g>
    </g>
</svg>
