<svg xmlns="http://www.w3.org/2000/svg" width="24" height="24" viewBox="0 0 24 24">
    <path data-name="사각형 165" style="fill:transparent" d="M0 0h24v24H0z"/>
    <path data-name="패스 10297" d="M-435.92 17.575h-.844v-6.344a6.5 6.5 0 0 0-4.644-6.2l-.091-.027.044-.084a2 2 0 0 0 .228-.92 2 2 0 0 0-2-2 2 2 0 0 0-2 2 2 2 0 0 0 .228.926l.044.084-.091.027a6.5 6.5 0 0 0-4.644 6.2v6.344h-.664a.6.6 0 0 0-.6.6.6.6 0 0 0 .6.6h4.766v.574a2.4 2.4 0 0 0 2.4 2.4 2.4 2.4 0 0 0 2.4-2.4v-.574h4.856a.6.6 0 0 0 .6-.6.6.6 0 0 0-.588-.606zm-7.3-14.378a.81.81 0 0 1 .8.8.81.81 0 0 1-.617.776H-443.401a.81.81 0 0 1-.621-.773.81.81 0 0 1 .799-.8zm1.25 16.149a1.206 1.206 0 0 1-1.2 1.2 1.206 1.206 0 0 1-1.2-1.2v-.574h2.409zm4.012-1.771h-10.524v-6.344a5.236 5.236 0 0 1 1.455-3.631 5.237 5.237 0 0 1 3.545-1.623h.013a1.916 1.916 0 0 0 .491 0h.013a5.237 5.237 0 0 1 3.546 1.623 5.236 5.236 0 0 1 1.458 3.633z" transform="translate(455.133 .126)" style="fill:#1a1a1a"/>
</svg>
