<svg xmlns="http://www.w3.org/2000/svg" width="22" height="22" viewBox="0 0 22 22">
    <path data-name="사각형 165" style="fill:transparent" d="M0 0h22v22H0z"/>
    <g data-name="그룹 670">
        <path data-name="패스 10290" d="M-425.933-2793.116h4.954a.674.674 0 0 0 .674-.674.675.675 0 0 0-.674-.674h-4.954a.674.674 0 0 0-.674.674.674.674 0 0 0 .674.674z" transform="translate(435.831 2801.417)" style="fill:#1a1a1a"/>
        <path data-name="패스 10291" d="M-419.082-2696.392h-6.851a.674.674 0 0 0-.674.674.674.674 0 0 0 .674.674h6.851a.674.674 0 0 0 .674-.674.674.674 0 0 0-.674-.674z" transform="translate(435.831 2707.167)" style="fill:#1a1a1a"/>
        <path data-name="패스 10292" d="M-611.149-2921.618h-13.992a.674.674 0 0 0-.674.674v7.574h-1.513a2.864 2.864 0 0 0-2.861 2.861v4.4a2.864 2.864 0 0 0 2.861 2.861 2.859 2.859 0 0 0 .38-.025h13.058a3.418 3.418 0 0 0 3.414-3.414v-14.255a.675.675 0 0 0-.673-.676zm-14.666 15.509a1.516 1.516 0 0 1-1.221 1.485h-.176v.026h-.117a1.515 1.515 0 0 1-1.513-1.514v-4.4a1.515 1.515 0 0 1 1.513-1.513h1.513zm13.992-.58a2.1 2.1 0 0 1-2.067 2.067h-10.988l.089-.171a2.861 2.861 0 0 0 .321-1.317v-14.161h12.645z" transform="translate(631.482 2923.618)" style="fill:#1a1a1a"/>
        <path data-name="패스 10293" d="M-420.979-2604.4h-4.954a.674.674 0 0 0-.674.674.674.674 0 0 0 .674.674h4.954a.674.674 0 0 0 .674-.674.675.675 0 0 0-.674-.674z" transform="translate(435.831 2618.76)" style="fill:#1a1a1a"/>
    </g>
</svg>
