<svg xmlns="http://www.w3.org/2000/svg" width="24" height="24" viewBox="0 0 24 24">
    <path data-name="사각형 10" style="fill:transparent" d="M0 0h24v24H0z"/>
    <path data-name="패스 637" d="M19.631 7.862v7.587a4.1 4.1 0 0 1-4.09 4.09h-.818a.818.818 0 0 1 0-1.636h.818a2.454 2.454 0 0 0 2.454-2.454V7.862a2.454 2.454 0 0 0-1.081-2.034l-5.726-3.863a2.437 2.437 0 0 0-2.745 0L2.717 5.828a2.454 2.454 0 0 0-1.081 2.034v7.587A2.454 2.454 0 0 0 4.09 17.9h.818a.818.818 0 0 1 0 1.636H4.09A4.1 4.1 0 0 1 0 15.449V7.862a4.084 4.084 0 0 1 1.8-3.39L7.525.608a4.074 4.074 0 0 1 4.576 0l5.726 3.864a4.09 4.09 0 0 1 1.804 3.39zm-4.09 4.321a5.686 5.686 0 0 1-1.677 4.048l-2.875 2.812a1.687 1.687 0 0 1-2.347 0l-2.869-2.805a5.726 5.726 0 1 1 9.768-4.055zm-1.636 0a4.09 4.09 0 1 0-6.982 2.891l2.863 2.8 2.928-2.806a4.055 4.055 0 0 0 1.186-2.885zm-1.636-.006a2.454 2.454 0 1 1-2.454-2.453 2.454 2.454 0 0 1 2.454 2.454z" transform="translate(2.185 2.326)" style="fill:#999"/>
</svg>
