<svg xmlns="http://www.w3.org/2000/svg" width="48" height="48" viewBox="0 0 48 48">
    <path data-name="사각형 10" style="fill:transparent" d="M0 0h48v48H0z"/>
    <g data-name="그룹 277">
        <g data-name="그룹 276">
            <path data-name="패스 194" d="M307.618 167.715h-2.765a2.483 2.483 0 0 0 0 4.966 3.7 3.7 0 0 0 3.683 3.684h3.835a18.641 18.641 0 0 0 2.025-13.484l-3.917-6.468-5.03 4.719.062.232h2.108a3.175 3.175 0 1 1 0 6.351z" transform="translate(-274.442 -140.843)" style="fill:#5b85d9"/>
            <path data-name="패스 195" d="M17.9 177.6a3.1 3.1 0 0 0 0-6.208h-5.378a18.634 18.634 0 0 0 2.078 21.623h9.976a4.6 4.6 0 0 0 0-9.209H17.9a3.1 3.1 0 0 1 0-6.208z" transform="translate(-6.823 -154.552)" style="fill:#5b85d9"/>
        </g>
        <path data-name="패스 196" d="M42.316 1.03A3.4 3.4 0 0 0 39.815 0a4.617 4.617 0 0 0-3.19 1.489L33.971 4.3l-7.416-2.32a.847.847 0 0 0-.851.209l-2.559 2.563A19.471 19.471 0 1 0 38.592 20.2l2.56-2.56a.847.847 0 0 0 .209-.851l-2.32-7.416 2.816-2.654a4.617 4.617 0 0 0 1.486-3.192 3.4 3.4 0 0 0-1.027-2.5zM19.471 41.651a17.777 17.777 0 1 1 3.84-35.135l5.461 3.308-3.658 3.9-3.384-.9a.847.847 0 0 0-.816.219l-2.894 2.892a.847.847 0 0 0 .209 1.35l5.159 2.674 2.674 5.159a.847.847 0 0 0 1.35.209l2.894-2.894a.847.847 0 0 0 .219-.816l-.9-3.384 3.9-3.658 3.3 5.456a17.778 17.778 0 0 1-17.357 21.62zM41.65 3.5a2.938 2.938 0 0 1-.95 1.989l-3.2 3.017a.847.847 0 0 0-.227.869l2.325 7.432-1.7 1.7L34.43 12.8a.847.847 0 0 0-1.3-.179l-5.03 4.722a.846.846 0 0 0-.239.835l.906 3.4-1.731 1.731-2.265-4.37a.847.847 0 0 0-.362-.362l-4.37-2.265 1.731-1.731 3.4.906a.847.847 0 0 0 .83-.237l4.719-5.03a.847.847 0 0 0-.179-1.3l-5.706-3.462 1.7-1.7 7.432 2.325a.846.846 0 0 0 .869-.227l3.017-3.2a2.938 2.938 0 0 1 1.983-.957h.028a1.72 1.72 0 0 1 1.251.534A1.716 1.716 0 0 1 41.65 3.5z" transform="translate(2.33 2.329)" style="fill:#111828"/>
    </g>
</svg>
