<svg xmlns="http://www.w3.org/2000/svg" width="24" height="24" viewBox="0 0 24 24">
    <path data-name="사각형 10" style="fill:transparent" d="M0 0h24v24H0z"/>
    <g data-name="그룹 390">
        <path data-name="패스 633" d="M5.606 0H3.2A3.2 3.2 0 0 0 0 3.2v2.4a3.2 3.2 0 0 0 3.2 3.2h2.4a3.2 3.2 0 0 0 3.2-3.2V3.2A3.2 3.2 0 0 0 5.606 0zm1.6 5.606a1.6 1.6 0 0 1-1.6 1.6H3.2a1.6 1.6 0 0 1-1.6-1.6V3.2a1.6 1.6 0 0 1 1.6-1.6h2.4a1.6 1.6 0 0 1 1.6 1.6z" style="fill:currentColor" transform="translate(2.39 2.39)"/>
        <path data-name="패스 634" d="M282.939 0h-2.4a3.2 3.2 0 0 0-3.2 3.2v2.4a3.2 3.2 0 0 0 3.2 3.2h2.4a3.2 3.2 0 0 0 3.2-3.2V3.2a3.2 3.2 0 0 0-3.2-3.2zm1.6 5.606a1.6 1.6 0 0 1-1.6 1.6h-2.4a1.6 1.6 0 0 1-1.6-1.6V3.2a1.6 1.6 0 0 1 1.6-1.6h2.4a1.6 1.6 0 0 1 1.6 1.6z" transform="translate(-264.532 2.39)" style="fill:currentColor"/>
        <path data-name="패스 635" d="M5.606 277.333H3.2a3.2 3.2 0 0 0-3.2 3.2v2.4a3.2 3.2 0 0 0 3.2 3.2h2.4a3.2 3.2 0 0 0 3.2-3.2v-2.4a3.2 3.2 0 0 0-3.194-3.2zm1.6 5.606a1.6 1.6 0 0 1-1.6 1.6H3.2a1.6 1.6 0 0 1-1.6-1.6v-2.4a1.6 1.6 0 0 1 1.6-1.6h2.4a1.6 1.6 0 0 1 1.6 1.6z" transform="translate(2.39 -264.532)" style="fill:currentColor"/>
        <path data-name="패스 636" d="M282.939 277.333h-2.4a3.2 3.2 0 0 0-3.2 3.2v2.4a3.2 3.2 0 0 0 3.2 3.2h2.4a3.2 3.2 0 0 0 3.2-3.2v-2.4a3.2 3.2 0 0 0-3.2-3.2zm1.6 5.606a1.6 1.6 0 0 1-1.6 1.6h-2.4a1.6 1.6 0 0 1-1.6-1.6v-2.4a1.6 1.6 0 0 1 1.6-1.6h2.4a1.6 1.6 0 0 1 1.6 1.6z" transform="translate(-264.532 -264.532)" style="fill:currentColor"/>
    </g>
</svg>
