<svg xmlns="http://www.w3.org/2000/svg" width="19" height="19" viewBox="0 0 19 19">
    <g transform="translate(-41 -191)">
        <circle data-name="타원 11" cx="9.5" cy="9.5" r="9.5" transform="translate(41 191)" style="fill:#fae100"/>
        <path data-name="패스 10307" d="M22.059 143.442c-2.655 0-4.808 1.7-4.808 3.8a3.714 3.714 0 0 0 2.281 3.234c-.1.375-.364 1.36-.417 1.571-.065.261.1.258.2.188.083-.055 1.317-.895 1.85-1.257a6.083 6.083 0 0 0 .892.066c2.655 0 4.808-1.7 4.808-3.8s-2.151-3.802-4.806-3.802z" transform="translate(28.441 52.558)" style="fill:#3b1e1e"/>
    </g>
</svg>
