<svg xmlns="http://www.w3.org/2000/svg" width="24" height="24" viewBox="0 0 24 24">
    <path data-name="사각형 17" style="fill:transparent" d="M0 0h24v24H0z"/>
    <g data-name="그룹 307">
        <path data-name="패스 249" d="M20.41 13.407a.612.612 0 0 0-.866.866l1.235 1.235a.612.612 0 1 0 .866-.866z"/>
        <path data-name="패스 250" d="M19.977 8.341a.611.611 0 0 0 .433-.179l1.235-1.235a.612.612 0 1 0-.866-.866l-1.235 1.235a.612.612 0 0 0 .433 1.045z"/>
        <path data-name="패스 251" d="M22.284 10.172h-1.746a.612.612 0 0 0 0 1.224h1.746a.612.612 0 0 0 0-1.224z"/>
        <path data-name="패스 252" d="M18.294 2.078a.612.612 0 0 0-.619.012l-7.011 4.294H7.552a2.392 2.392 0 0 0-1.782.653 2.469 2.469 0 0 0-.454.58H3.775A1.777 1.777 0 0 0 2 9.392v2.784a1.777 1.777 0 0 0 1.775 1.775h1.537a2.668 2.668 0 0 0 1.071 1.048L4.25 18.693a.612.612 0 0 0 .231.84l2.7 1.515a.612.612 0 0 0 .83-.228l3.046-5.275 6.625 3.937a.612.612 0 0 0 .925-.526V2.612a.612.612 0 0 0-.313-.534zM3.775 12.725a.551.551 0 0 1-.55-.55V9.392a.551.551 0 0 1 .55-.55h1.21V12.726zm2.434-3.857a1.293 1.293 0 0 1 .4-.94 1.179 1.179 0 0 1 .889-.322h2.727v6.482h-2.67a1.423 1.423 0 0 1-1.346-1.391zm1.044 10.817-1.633-.917 1.958-3.392a.613.613 0 0 0 .031-.062h2.168zm10.129-1.8-5.933-3.531V7.339l5.934-3.634z"/>
    </g>
</svg>
