<svg xmlns="http://www.w3.org/2000/svg" width="48" height="48" viewBox="0 0 48 48">
    <path data-name="사각형 316" style="fill:transparent" d="M0 0h48v48H0z"/>
    <g transform="translate(461.056 -30.023)">
        <path data-name="패스 639" d="M-437.056 32A14.961 14.961 0 0 0-452 46.944c0 12.168 13.764 28.157 14.351 28.831a.787.787 0 0 0 1.11.078.79.79 0 0 0 .078-.078c.586-.675 14.35-16.663 14.35-28.831A14.961 14.961 0 0 0-437.056 32z" transform="translate(-.056)" style="fill:#f80"/>
        <ellipse data-name="타원 7" cx="12" cy="11.5" rx="12" ry="11.5" transform="translate(-449.056 35.023)" style="fill:#fafafa"/>
        <path data-name="사각형 10" transform="translate(-445.056 38.023)" style="fill:transparent" d="M0 0h16v16H0z"/>
        <path data-name="패스 10306" d="M46.966 6.125a3.387 3.387 0 1 0-3.983 0 5.6 5.6 0 0 0-3.6 5.222 1.865 1.865 0 0 0 1.863 1.863H48.7a1.865 1.865 0 0 0 1.863-1.863 5.6 5.6 0 0 0-3.597-5.222zM42.6 3.387a2.371 2.371 0 1 1 2.371 2.371A2.374 2.374 0 0 1 42.6 3.387zm6.1 8.807h-7.452a.848.848 0 0 1-.847-.847 4.573 4.573 0 1 1 9.146 0 .848.848 0 0 1-.847.847z" transform="translate(-481.976 39.338)" style="stroke:#f80;stroke-width:.2px;fill:#f80"/>
    </g>
</svg>
