<svg xmlns="http://www.w3.org/2000/svg" width="48" height="48" viewBox="0 0 48 48">
    <path data-name="사각형 316" style="fill:transparent" d="M0 0h48v48H0z"/>
    <g transform="translate(461.056 -30.023)">
        <path data-name="패스 639" d="M-437.056 32A14.961 14.961 0 0 0-452 46.944c0 12.168 13.764 28.157 14.351 28.831a.787.787 0 0 0 1.11.078.79.79 0 0 0 .078-.078c.586-.675 14.35-16.663 14.35-28.831A14.961 14.961 0 0 0-437.056 32z" style="fill:#52b80f"/>
        <ellipse data-name="타원 7" cx="12" cy="11.5" rx="12" ry="11.5" transform="translate(-449.056 35.023)" style="fill:#fafafa"/>
        <path data-name="패스 10305" d="M33.236 32.669h-.567V21.9a.567.567 0 0 0-.567-.567h-9.069a.567.567 0 0 0-.567.567v10.769H21.9a.567.567 0 1 0 0 1.134h11.336a.567.567 0 1 0 0-1.134zm-7.368 0V30.4h3.4v2.267zm4.534 0v-2.834a.567.567 0 0 0-.567-.567H25.3a.567.567 0 0 0-.567.567v2.834H23.6v-10.2h7.935v10.2zm-4.534-8.5v.567a.567.567 0 1 1-1.134 0v-.567a.567.567 0 0 1 1.134 0zm2.267 0v.567a.567.567 0 1 1-1.134 0v-.567a.567.567 0 0 1 1.134 0zm2.267 0v.567a.567.567 0 1 1-1.134 0v-.567a.567.567 0 0 1 1.134 0zM25.867 27v.567a.567.567 0 0 1-1.134 0V27a.567.567 0 1 1 1.134 0zm2.267 0v.567a.567.567 0 0 1-1.134 0V27a.567.567 0 1 1 1.134 0zm2.266 0v.567a.567.567 0 0 1-1.134 0V27a.567.567 0 1 1 1.134 0z" transform="translate(-464.389 18.69)" style="fill:#52b80f"/>
    </g>
</svg>
