<svg xmlns="http://www.w3.org/2000/svg" width="48" height="48" viewBox="0 0 48 48">
    <path data-name="사각형 316" style="fill:transparent" d="M0 0h48v48H0z"/>
    <g transform="translate(461.056 -30.023)">
        <path data-name="패스 639" d="M-437.056 32A14.961 14.961 0 0 0-452 46.944c0 12.168 13.764 28.157 14.351 28.831a.787.787 0 0 0 1.11.078.79.79 0 0 0 .078-.078c.586-.675 14.35-16.663 14.35-28.831A14.961 14.961 0 0 0-437.056 32z" style="fill:#dc0b20"/>
        <ellipse data-name="타원 7" cx="12" cy="11.5" rx="12" ry="11.5" transform="translate(-449.056 35.023)" style="fill:#fafafa"/>
        <path data-name="패스 640" d="M12.467 4.958v4.819a2.6 2.6 0 0 1-2.6 2.6H9.35a.519.519 0 0 1 0-1.039h.52a1.558 1.558 0 0 0 1.558-1.558V4.958a1.558 1.558 0 0 0-.687-1.292L7.105 1.213a1.548 1.548 0 0 0-1.743 0L1.726 3.666a1.558 1.558 0 0 0-.687 1.292v4.819A1.558 1.558 0 0 0 2.6 11.335h.519a.519.519 0 0 1 0 1.039H2.6A2.6 2.6 0 0 1 0 9.777V4.958a2.594 2.594 0 0 1 1.143-2.153L4.779.351a2.587 2.587 0 0 1 2.906 0l3.636 2.454a2.6 2.6 0 0 1 1.146 2.153zM9.87 7.7a3.611 3.611 0 0 1-1.07 2.574L6.979 12.06a1.072 1.072 0 0 1-1.491 0l-1.822-1.782A3.636 3.636 0 1 1 9.87 7.7zm-1.039 0A2.6 2.6 0 1 0 4.4 9.539l1.818 1.778 1.86-1.782A2.576 2.576 0 0 0 8.831 7.7zm-1.039 0a1.558 1.558 0 1 1-1.558-1.559A1.558 1.558 0 0 1 7.792 7.7z" transform="translate(-443.289 40.384)" style="fill:#dc0b20"/>
    </g>
</svg>
