<svg xmlns="http://www.w3.org/2000/svg" width="48" height="48" viewBox="0 0 48 48">
    <path data-name="사각형 316" style="fill:transparent" d="M0 0h48v48H0z"/>
    <g transform="translate(461.056 -30.023)">
        <path data-name="패스 639" d="M-437.056 32A14.961 14.961 0 0 0-452 46.944c0 12.168 13.764 28.157 14.351 28.831a.787.787 0 0 0 1.11.078.79.79 0 0 0 .078-.078c.586-.675 14.35-16.663 14.35-28.831A14.961 14.961 0 0 0-437.056 32z" transform="translate(-.056)" style="fill:#0082ef"/>
        <ellipse data-name="타원 7" cx="12" cy="11.5" rx="12" ry="11.5" transform="translate(-449.056 35.023)" style="fill:#fafafa"/>
        <path data-name="사각형 10" transform="translate(-445.056 38.023)" style="fill:transparent" d="M0 0h16v16H0z"/>
        <path data-name="패스 638" d="M11.3 23.711H9.514v-.595a1.784 1.784 0 0 0-1.784-1.783H6.541a1.784 1.784 0 0 0-1.784 1.784v.595H2.973A2.977 2.977 0 0 0 0 26.684v4.757a2.977 2.977 0 0 0 2.973 2.973H11.3a2.977 2.977 0 0 0 2.973-2.973v-4.757a2.977 2.977 0 0 0-2.973-2.973zm-5.351-.595a.6.6 0 0 1 .595-.595H7.73a.6.6 0 0 1 .595.595v.595H5.946zm7.135 8.325a1.784 1.784 0 0 1-1.784 1.784H2.973a1.784 1.784 0 0 1-1.784-1.784v-4.757A1.784 1.784 0 0 1 2.973 24.9H11.3a1.784 1.784 0 0 1 1.784 1.784zm-3.57-2.378a.6.6 0 0 1-.595.595H7.73v1.189a.595.595 0 0 1-1.189 0v-1.189h-1.19a.595.595 0 0 1 0-1.189h1.19v-1.19a.595.595 0 1 1 1.189 0v1.189h1.189a.6.6 0 0 1 .595.595z" transform="translate(-444.138 18.134)" style="fill:#0082ef"/>
    </g>
</svg>
