<svg xmlns="http://www.w3.org/2000/svg" width="24" height="24" viewBox="0 0 24 24">
    <path data-name="사각형 51" style="fill:transparent" d="M0 0h24v24H0z"/>
    <path data-name="패스 64" d="m-537.1 28.95-5.315-5.315.04-.05a7.119 7.119 0 0 0 1.585-4.466 7.118 7.118 0 0 0-7.11-7.11 7.118 7.118 0 0 0-7.11 7.11 7.118 7.118 0 0 0 7.11 7.11 7.12 7.12 0 0 0 4.466-1.585l.05-.04 5.315 5.315a.308.308 0 0 0 .434 0l.534-.534a.308.308 0 0 0 .001-.435zm-10.8-4.091a5.747 5.747 0 0 1-5.74-5.74 5.747 5.747 0 0 1 5.74-5.74 5.747 5.747 0 0 1 5.74 5.74 5.747 5.747 0 0 1-5.74 5.74z" transform="translate(558.435 -8.584)" style="fill:#262626"/>
</svg>
